<svg xmlns="http://www.w3.org/2000/svg" version="1.1" xmlns:xlink="http://www.w3.org/1999/xlink" xmlns:svgjs="http://svgjs.dev/svgjs" width="2000" height="2000" viewBox="0 0 2000 2000"><g transform="matrix(1,0,0,1,-0.28443113772425477,-0.28443113772459583)"><svg viewBox="0 0 334 334" data-background-color="#c56e33" preserveAspectRatio="xMidYMid meet" height="2000" width="2000" xmlns="http://www.w3.org/2000/svg" xmlns:xlink="http://www.w3.org/1999/xlink"><g id="tight-bounds" transform="matrix(1,0,0,1,0.04749999999998522,0.04750000000001364)"><svg viewBox="0 0 333.90454557049503 333.90454557049503" height="333.90454557049503" width="333.90454557049503"><g><svg></svg></g><g><svg viewBox="0 0 333.90454557049503 333.90454557049503" height="333.90454557049503" width="333.90454557049503"><g><path d="M0 166.952c0-92.205 74.747-166.952 166.952-166.952 92.205 0 166.952 74.747 166.953 166.952 0 92.205-74.747 166.952-166.953 166.953-92.205 0-166.952-74.747-166.952-166.953zM166.952 329.534c89.792 0 162.582-72.791 162.582-162.582 0-89.792-72.791-162.582-162.582-162.582-89.792 0-162.582 72.791-162.582 162.582 0 89.792 72.791 162.582 162.582 162.582z" data-fill-palette-color="tertiary" fill="#ffffff" stroke="transparent"></path><ellipse rx="160.27418187383762" ry="160.27418187383762" cx="166.95227278524752" cy="166.95227278524752" fill="#ffffff" stroke="transparent" stroke-width="0" fill-opacity="1" data-fill-palette-color="tertiary"></ellipse></g><g transform="matrix(1,0,0,1,64.3594203788158,71.17305217166896)"><svg viewBox="0 0 205.18570481286343 191.55844122715712" height="191.55844122715712" width="205.18570481286343"><g><svg viewBox="0 0 205.18570481286343 191.55844122715712" height="191.55844122715712" width="205.18570481286343"><g><svg viewBox="0 0 213.1584412271571 199.00167398662245" height="191.55844122715712" width="205.18570481286343"><g transform="matrix(1,0,0,1,0,120.44701999298826)"><svg viewBox="0 0 213.1584412271571 78.55465399363418" height="78.55465399363418" width="213.1584412271571"><g id="textblocktransform"><svg viewBox="0 0 213.1584412271571 78.55465399363418" height="78.55465399363418" width="213.1584412271571" id="textblock"><g><svg viewBox="0 0 213.1584412271571 50.341788973829736" height="50.341788973829736" width="213.1584412271571"><g transform="matrix(1,0,0,1,0,0)"><svg width="213.1584412271571" viewBox="2 -39 197.94 46.75" height="50.341788973829736" data-palette-color="#c56e33"><path d="M15.9-9.05L15.9-1.45Q15.9-0.8 12.85-0.4 9.8 0 6.75 0 3.7 0 2.85-0.35 2-0.7 2-1.45L2-1.45 2-33.6Q2-36 16.4-36L16.4-36Q25.1-36 27.9-34.8L27.9-34.8Q31.3-33.4 32.5-31L32.5-31Q34.1-27.9 34.1-23.05L34.1-23.05Q34.1-16.4 31.8-13.4L31.8-13.4Q30.15-11.2 28.5-10.55 26.85-9.9 25.78-9.63 24.7-9.35 23.1-9.2L23.1-9.2Q20.9-9 17.1-9L17.1-9 15.9-9.05ZM15.95-27.6L15.95-17.35 17.15-17.35Q18.1-17.35 18.65-17.63 19.2-17.9 19.63-19.13 20.05-20.35 20.05-22.58 20.05-24.8 19.58-25.98 19.1-27.15 18.63-27.38 18.15-27.6 17.5-27.6L17.5-27.6 15.95-27.6ZM50.6-15.8L50.6-15.8 50.6-1.2Q50.6-0.65 47.77-0.33 44.95 0 41.92 0 38.9 0 38-0.28 37.1-0.55 37.1-1.2L37.1-1.2 37.1-25.85Q37.1-26.8 39.87-27.9 42.65-29 45.92-29 49.2-29 49.6-27.2L49.6-27.2 50.1-24.9 50.45-24.9Q51.15-26.8 53.8-28.13 56.45-29.45 59.1-29.45 61.75-29.45 62.82-28.6 63.9-27.75 63.9-26.43 63.9-25.1 63.7-23.05 63.5-21 62.72-18.6 61.95-16.2 60.7-16.2L60.7-16.2Q60.2-16.2 57.55-16.95 54.9-17.7 53.17-17.7 51.45-17.7 51.02-17.2 50.6-16.7 50.6-15.8ZM75.9 0.45L75.9 0.45Q71.35 0.45 68.75-1.7L68.75-1.7Q67.7-2.6 66.92-4.35 66.15-6.1 66.15-8.45 66.15-10.8 67.27-12.55 68.4-14.3 70-15.25 71.6-16.2 73.75-16.8L73.75-16.8Q77-17.65 80.9-17.65L80.9-17.65 82.55-17.65Q82.55-19.7 81.15-20.55L81.15-20.55Q80.55-20.9 79.32-20.9 78.1-20.9 76.37-20.25 74.65-19.6 73.5-18.93 72.35-18.25 71.95-18.25L71.95-18.25Q71.05-18.25 69.5-20.63 67.95-23 67.95-24.95L67.95-24.95Q67.95-25.6 69.8-26.65 71.65-27.7 75.02-28.58 78.4-29.45 81.6-29.45 84.8-29.45 87.12-28.93 89.45-28.4 90.92-27.65 92.4-26.9 93.42-25.65 94.45-24.4 94.97-23.4 95.5-22.4 95.75-20.8L95.75-20.8Q96.1-18.95 96.1-16.25L96.1-16.25 96.1-1.2Q96.1-0.65 93.42-0.33 90.75 0 88.12 0 85.5 0 84.72-0.15 83.95-0.3 83.8-0.5 83.65-0.7 83.55-1.2L83.55-1.2 83.15-4.05 82.75-4.05Q81.5 0.45 75.9 0.45ZM82.6-7.85L82.6-7.85 82.6-13.7Q81.3-13.7 80.5-12.6 79.7-11.5 79.7-10.1L79.7-10.1Q79.7-6.8 81.2-6.8L81.2-6.8Q81.85-6.8 82.22-7.13 82.6-7.45 82.6-7.85ZM129.74-16.6L129.74-16.6 129.74-1.2Q129.74-0.65 126.89-0.33 124.04 0 121.02 0 117.99 0 117.12-0.28 116.24-0.55 116.24-1.2L116.24-1.2 116.24-17.1Q116.24-19.35 116.07-20.05 115.89-20.75 115.74-21.3L115.74-21.3Q115.39-22.25 114.49-22.25L114.49-22.25Q113.09-22.25 113.09-20.9L113.09-20.9 113.09-1.2Q113.09-0.65 110.27-0.33 107.44 0 104.42 0 101.39 0 100.49-0.28 99.59-0.55 99.59-1.2L99.59-1.2 99.59-25.85Q99.59-26.9 102.47-27.95 105.34-29 108.54-29 111.74-29 112.14-27.15L112.14-27.15 112.59-24.95 112.94-24.95Q114.39-27.85 117.94-29L117.94-29Q119.39-29.45 121.14-29.45L121.14-29.45Q126.19-29.45 127.97-26.43 129.74-23.4 129.74-16.6ZM149.49-4.5Q149.49 1.65 146.72 4.7 143.94 7.75 139.09 7.75 134.24 7.75 132.87 6.83 131.49 5.9 131.49 2.68 131.49-0.55 132.74-0.7L132.74-0.7Q134.49-0.95 135.22-1.6 135.94-2.25 135.94-4L135.94-4 135.94-24.95Q135.94-26.05 138.77-27.13 141.59-28.2 144.89-28.2L144.89-28.2Q149.49-28.2 149.49-25.85L149.49-25.85 149.49-4.5ZM149.74-34.65Q149.74-30 142.74-30 135.74-30 135.74-34.55L135.74-34.55Q135.74-37.1 137.62-38.05 139.49-39 142.84-39 146.19-39 147.97-38.13 149.74-37.25 149.74-34.65L149.74-34.65ZM162.74 0.45L162.74 0.45Q158.19 0.45 155.59-1.7L155.59-1.7Q154.54-2.6 153.76-4.35 152.99-6.1 152.99-8.45 152.99-10.8 154.11-12.55 155.24-14.3 156.84-15.25 158.44-16.2 160.59-16.8L160.59-16.8Q163.84-17.65 167.74-17.65L167.74-17.65 169.39-17.65Q169.39-19.7 167.99-20.55L167.99-20.55Q167.39-20.9 166.16-20.9 164.94-20.9 163.21-20.25 161.49-19.6 160.34-18.93 159.19-18.25 158.79-18.25L158.79-18.25Q157.89-18.25 156.34-20.63 154.79-23 154.79-24.95L154.79-24.95Q154.79-25.6 156.64-26.65 158.49-27.7 161.86-28.58 165.24-29.45 168.44-29.45 171.64-29.45 173.96-28.93 176.29-28.4 177.76-27.65 179.24-26.9 180.26-25.65 181.29-24.4 181.81-23.4 182.34-22.4 182.59-20.8L182.59-20.8Q182.94-18.95 182.94-16.25L182.94-16.25 182.94-1.2Q182.94-0.65 180.26-0.33 177.59 0 174.96 0 172.34 0 171.56-0.15 170.79-0.3 170.64-0.5 170.49-0.7 170.39-1.2L170.39-1.2 169.99-4.05 169.59-4.05Q168.34 0.45 162.74 0.45ZM169.44-7.85L169.44-7.85 169.44-13.7Q168.14-13.7 167.34-12.6 166.54-11.5 166.54-10.1L166.54-10.1Q166.54-6.8 168.04-6.8L168.04-6.8Q168.69-6.8 169.06-7.13 169.44-7.45 169.44-7.85ZM199.94-36.7L199.94-36.7 199.94-1.2Q199.94-0.65 197.09-0.33 194.24 0 191.21 0 188.19 0 187.31-0.28 186.44-0.55 186.44-1.2L186.44-1.2 186.44-35.8Q186.44-36.9 189.26-37.95 192.09-39 195.34-39L195.34-39Q199.94-39 199.94-36.7Z" opacity="1" transform="matrix(1,0,0,1,0,0)" fill="#c56e33" class="wordmark-text-0" data-fill-palette-color="quaternary" id="text-0"></path></svg></g></svg></g><g transform="matrix(1,0,0,1,0,62.22627714761556)"><svg viewBox="0 0 213.1584412271571 16.328376846018614" height="16.328376846018614" width="213.1584412271571"><g transform="matrix(1,0,0,1,0,0)"><svg width="213.1584412271571" viewBox="0.51 -41.11 690.29 52.879999999999995" height="16.328376846018614" data-palette-color="#c56e33"><path d="M0.51 0L18.43-38.16 26.64-38.16 45.09 0 36.96 0 33.91-6.42 11.62-6.42 8.67 0 0.51 0ZM14.58-12.79L30.86-12.79 22.61-30.13 14.58-12.79ZM69.87 0L69.87-23.39 64.94-23.39 64.94-28.81 69.87-28.81Q69.87-31.74 70.7-34.02 71.53-36.3 73.1-37.88 74.68-39.45 76.94-40.28 79.19-41.11 82.03-41.11L82.03-41.11Q84-41.11 85.91-40.73 87.81-40.36 89.28-39.65L89.28-39.65 86.71-33.57Q86.13-33.91 85.07-34.2 84-34.5 82.73-34.5L82.73-34.5Q80.24-34.5 78.72-33.09 77.19-31.69 77.09-28.81L77.09-28.81 86.2-28.81 86.2-23.39 77.09-23.39 77.09 0 69.87 0ZM91.76 0L91.76-28.81 98.99-28.81 98.99-24.66Q101.38-26.44 104.05-27.73 106.71-29.03 109.34-29.71L109.34-29.71 111.47-23.1Q107.29-22.68 104.13-21.23 100.97-19.78 98.99-17.14L98.99-17.14 98.99 0 91.76 0ZM115.1-14.4L115.1-14.4Q115.1-17.5 116.36-20.21 117.62-22.92 119.95-24.95 122.28-26.98 125.59-28.15 128.9-29.32 133.02-29.32L133.02-29.32Q137.15-29.32 140.46-28.15 143.76-26.98 146.1-24.95 148.43-22.92 149.68-20.21 150.94-17.5 150.94-14.4L150.94-14.4Q150.94-11.3 149.68-8.59 148.43-5.88 146.1-3.86 143.76-1.83 140.46-0.66 137.15 0.51 133.02 0.51L133.02 0.51Q128.9 0.51 125.59-0.66 122.28-1.83 119.95-3.86 117.62-5.88 116.36-8.59 115.1-11.3 115.1-14.4ZM122.7-14.4L122.7-14.4Q122.7-12.67 123.39-11.12 124.09-9.57 125.42-8.39 126.75-7.2 128.66-6.51 130.58-5.81 133.02-5.81L133.02-5.81Q135.46-5.81 137.38-6.51 139.3-7.2 140.63-8.39 141.96-9.57 142.65-11.12 143.35-12.67 143.35-14.4L143.35-14.4Q143.35-16.14 142.65-17.7 141.96-19.26 140.63-20.45 139.3-21.63 137.38-22.33 135.46-23.02 133.02-23.02L133.02-23.02Q130.58-23.02 128.66-22.33 126.75-21.63 125.42-20.45 124.09-19.26 123.39-17.7 122.7-16.14 122.7-14.4ZM158.24 0L158.24-28.81 165.47-28.81 165.47-26.37Q168.35-28 170.97-28.66 173.6-29.32 176.11-29.32L176.11-29.32Q179.41-29.32 182.21-28.36 185.02-27.39 187.07-25.49 189.12-23.58 190.28-20.74 191.44-17.9 191.44-14.16L191.44-14.16 191.44 0 184.24 0 184.24-12.99Q184.24-15.36 183.57-17.22 182.9-19.09 181.64-20.37 180.38-21.66 178.59-22.33 176.79-23 174.57-23L174.57-23Q173.4-23 172.17-22.75 170.93-22.51 169.75-22.06 168.57-21.61 167.47-20.94 166.37-20.26 165.47-19.41L165.47-19.41 165.47 0 158.24 0ZM204.65 0L204.65-23.39 197.69-23.39 197.69-28.81 204.65-28.81 204.65-37.77 211.87-37.77 211.87-28.81 218.83-28.81 218.83-23.39 211.87-23.39 211.87 0 204.65 0ZM223.88-14.5L223.88-14.5Q223.88-17.43 225.08-20.1 226.28-22.78 228.52-24.83 230.77-26.88 234.03-28.1 237.29-29.32 241.44-29.32L241.44-29.32Q245.56-29.32 248.87-28.09 252.18-26.86 254.49-24.71 256.79-22.56 258.03-19.65 259.26-16.75 259.26-13.43L259.26-13.43Q259.26-13.01 259.25-12.54 259.24-12.06 259.19-11.67L259.19-11.67 231.94-11.67Q232.4-10.38 233.44-9.3 234.48-8.23 236.04-7.45 237.6-6.67 239.66-6.24 241.71-5.81 244.2-5.81L244.2-5.81Q246.69-5.81 249.15-6.34 251.62-6.86 253.86-7.67L253.86-7.67 256.31-2.15Q254.89-1.49 253.44-0.99 251.98-0.49 250.41-0.16 248.84 0.17 247.11 0.34 245.39 0.51 243.49 0.51L243.49 0.51Q238.63 0.51 234.97-0.66 231.31-1.83 228.84-3.86 226.37-5.88 225.13-8.62 223.88-11.35 223.88-14.5ZM231.94-17.31L251.59-17.31Q251.2-18.51 250.39-19.54 249.57-20.58 248.35-21.35 247.13-22.12 245.51-22.56 243.9-23 241.97-23L241.97-23Q239.92-23 238.24-22.53 236.55-22.07 235.29-21.29 234.02-20.51 233.17-19.48 232.33-18.46 231.94-17.31L231.94-17.31ZM267.02 0L267.02-28.81 274.25-28.81 274.25-26.37Q277.13-28 279.75-28.66 282.38-29.32 284.89-29.32L284.89-29.32Q288.19-29.32 291-28.36 293.8-27.39 295.85-25.49 297.9-23.58 299.06-20.74 300.22-17.9 300.22-14.16L300.22-14.16 300.22 0 293.02 0 293.02-12.99Q293.02-15.36 292.35-17.22 291.68-19.09 290.42-20.37 289.16-21.66 287.37-22.33 285.58-23 283.35-23L283.35-23Q282.18-23 280.95-22.75 279.72-22.51 278.53-22.06 277.35-21.61 276.25-20.94 275.15-20.26 274.25-19.41L274.25-19.41 274.25 0 267.02 0ZM306.86-14.28L306.86-14.28Q306.86-17.72 308.16-20.5 309.45-23.27 311.73-25.23 314.02-27.2 317.15-28.26 320.29-29.32 323.95-29.32L323.95-29.32Q325.51-29.32 327.04-29.13 328.57-28.93 329.97-28.59 331.37-28.25 332.61-27.77 333.84-27.29 334.79-26.73L334.79-26.73 334.79-40.5 342.02-40.5 342.02 0 334.79 0 334.79-2.71Q333.84-2.05 332.55-1.46 331.25-0.88 329.76-0.44 328.27 0 326.67 0.26 325.08 0.51 323.51 0.51L323.51 0.51Q319.85 0.51 316.79-0.56 313.72-1.64 311.53-3.59 309.33-5.54 308.1-8.26 306.86-10.99 306.86-14.28ZM314.46-14.28L314.46-14.28Q314.46-12.55 315.15-11.01 315.85-9.47 317.15-8.31 318.46-7.15 320.3-6.48 322.15-5.81 324.44-5.81L324.44-5.81Q325.91-5.81 327.37-6.09 328.83-6.37 330.19-6.88 331.54-7.4 332.73-8.13 333.91-8.86 334.79-9.77L334.79-9.77 334.79-19.75Q333.69-20.63 332.47-21.24 331.25-21.85 329.98-22.24 328.71-22.63 327.42-22.81 326.12-23 324.9-23L324.9-23Q322.41-23 320.47-22.33 318.53-21.66 317.2-20.48 315.87-19.31 315.16-17.72 314.46-16.14 314.46-14.28ZM365.23-14.28L365.23-14.28Q365.23-17.72 366.53-20.5 367.82-23.27 370.1-25.23 372.38-27.2 375.52-28.26 378.66-29.32 382.32-29.32L382.32-29.32Q383.88-29.32 385.41-29.13 386.94-28.93 388.34-28.59 389.74-28.25 390.98-27.77 392.21-27.29 393.16-26.73L393.16-26.73 393.16-40.5 400.39-40.5 400.39 0 393.16 0 393.16-2.71Q392.21-2.05 390.91-1.46 389.62-0.88 388.13-0.44 386.64 0 385.04 0.26 383.44 0.51 381.88 0.51L381.88 0.51Q378.22 0.51 375.16-0.56 372.09-1.64 369.89-3.59 367.7-5.54 366.46-8.26 365.23-10.99 365.23-14.28ZM372.82-14.28L372.82-14.28Q372.82-12.55 373.52-11.01 374.22-9.47 375.52-8.31 376.83-7.15 378.67-6.48 380.51-5.81 382.81-5.81L382.81-5.81Q384.27-5.81 385.74-6.09 387.2-6.37 388.56-6.88 389.91-7.4 391.1-8.13 392.28-8.86 393.16-9.77L393.16-9.77 393.16-19.75Q392.06-20.63 390.84-21.24 389.62-21.85 388.35-22.24 387.08-22.63 385.79-22.81 384.49-23 383.27-23L383.27-23Q380.78-23 378.84-22.33 376.9-21.66 375.57-20.48 374.24-19.31 373.53-17.72 372.82-16.14 372.82-14.28ZM407.86-14.5L407.86-14.5Q407.86-17.43 409.05-20.1 410.25-22.78 412.49-24.83 414.74-26.88 418-28.1 421.26-29.32 425.41-29.32L425.41-29.32Q429.54-29.32 432.84-28.09 436.15-26.86 438.46-24.71 440.77-22.56 442-19.65 443.23-16.75 443.23-13.43L443.23-13.43Q443.23-13.01 443.22-12.54 443.21-12.06 443.16-11.67L443.16-11.67 415.91-11.67Q416.38-10.38 417.41-9.3 418.45-8.23 420.01-7.45 421.58-6.67 423.63-6.24 425.68-5.81 428.17-5.81L428.17-5.81Q430.66-5.81 433.12-6.34 435.59-6.86 437.84-7.67L437.84-7.67 440.28-2.15Q438.86-1.49 437.41-0.99 435.96-0.49 434.38-0.16 432.81 0.17 431.09 0.34 429.36 0.51 427.46 0.51L427.46 0.51Q422.6 0.51 418.94-0.66 415.28-1.83 412.81-3.86 410.35-5.88 409.1-8.62 407.86-11.35 407.86-14.5ZM415.91-17.31L435.57-17.31Q435.18-18.51 434.36-19.54 433.54-20.58 432.32-21.35 431.1-22.12 429.49-22.56 427.88-23 425.95-23L425.95-23Q423.9-23 422.21-22.53 420.53-22.07 419.26-21.29 417.99-20.51 417.15-19.48 416.3-18.46 415.91-17.31L415.91-17.31ZM460.66 0L447.01-28.83 455.39-28.83 462.88-11.5 464.84-6.64 466.79-11.5 474.28-28.83 482.66-28.83 469.01 0 460.66 0ZM486.34-14.5L486.34-14.5Q486.34-17.43 487.54-20.1 488.73-22.78 490.98-24.83 493.23-26.88 496.49-28.1 499.75-29.32 503.9-29.32L503.9-29.32Q508.02-29.32 511.33-28.09 514.64-26.86 516.94-24.71 519.25-22.56 520.49-19.65 521.72-16.75 521.72-13.43L521.72-13.43Q521.72-13.01 521.71-12.54 521.69-12.06 521.64-11.67L521.64-11.67 494.4-11.67Q494.86-10.38 495.9-9.3 496.94-8.23 498.5-7.45 500.06-6.67 502.11-6.24 504.16-5.81 506.65-5.81L506.65-5.81Q509.14-5.81 511.61-6.34 514.08-6.86 516.32-7.67L516.32-7.67 518.76-2.15Q517.35-1.49 515.9-0.99 514.44-0.49 512.87-0.16 511.29 0.17 509.57 0.34 507.85 0.51 505.95 0.51L505.95 0.51Q501.09 0.51 497.43-0.66 493.76-1.83 491.3-3.86 488.83-5.88 487.59-8.62 486.34-11.35 486.34-14.5ZM494.4-17.31L514.05-17.31Q513.66-18.51 512.84-19.54 512.03-20.58 510.8-21.35 509.58-22.12 507.97-22.56 506.36-23 504.43-23L504.43-23Q502.38-23 500.7-22.53 499.01-22.07 497.74-21.29 496.47-20.51 495.63-19.48 494.79-18.46 494.4-17.31L494.4-17.31ZM529.67 0L529.67-40.5 536.9-40.5 536.9 0 529.67 0ZM544.42-14.4L544.42-14.4Q544.42-17.5 545.68-20.21 546.93-22.92 549.26-24.95 551.6-26.98 554.9-28.15 558.21-29.32 562.34-29.32L562.34-29.32Q566.46-29.32 569.77-28.15 573.08-26.98 575.41-24.95 577.74-22.92 579-20.21 580.26-17.5 580.26-14.4L580.26-14.4Q580.26-11.3 579-8.59 577.74-5.88 575.41-3.86 573.08-1.83 569.77-0.66 566.46 0.51 562.34 0.51L562.34 0.51Q558.21 0.51 554.9-0.66 551.6-1.83 549.26-3.86 546.93-5.88 545.68-8.59 544.42-11.3 544.42-14.4ZM552.01-14.4L552.01-14.4Q552.01-12.67 552.71-11.12 553.4-9.57 554.73-8.39 556.06-7.2 557.98-6.51 559.9-5.81 562.34-5.81L562.34-5.81Q564.78-5.81 566.7-6.51 568.61-7.2 569.94-8.39 571.27-9.57 571.97-11.12 572.67-12.67 572.67-14.4L572.67-14.4Q572.67-16.14 571.97-17.7 571.27-19.26 569.94-20.45 568.61-21.63 566.7-22.33 564.78-23.02 562.34-23.02L562.34-23.02Q559.9-23.02 557.98-22.33 556.06-21.63 554.73-20.45 553.4-19.26 552.71-17.7 552.01-16.14 552.01-14.4ZM594.59-2.08L594.59 11.77 587.36 11.77 587.36-28.81 594.59-28.81 594.59-26.1Q595.54-26.76 596.83-27.34 598.13-27.93 599.62-28.37 601.1-28.81 602.69-29.06 604.28-29.32 605.87-29.32L605.87-29.32Q609.53-29.32 612.59-28.25 615.66-27.17 617.85-25.22 620.05-23.27 621.28-20.54 622.52-17.82 622.52-14.53L622.52-14.53Q622.52-11.08 621.22-8.31 619.93-5.54 617.65-3.58 615.36-1.61 612.23-0.55 609.09 0.51 605.43 0.51L605.43 0.51Q603.86 0.51 602.34 0.32 600.81 0.12 599.41-0.22 598-0.56 596.77-1.04 595.54-1.51 594.59-2.08L594.59-2.08ZM594.59-19.04L594.59-9.06Q595.69-8.18 596.91-7.57 598.13-6.96 599.4-6.57 600.67-6.18 601.96-5.99 603.25-5.81 604.47-5.81L604.47-5.81Q606.96-5.81 608.91-6.48 610.85-7.15 612.18-8.33 613.51-9.5 614.22-11.08 614.92-12.67 614.92-14.53L614.92-14.53Q614.92-16.26 614.23-17.8 613.53-19.34 612.23-20.5 610.92-21.66 609.08-22.33 607.23-23 604.94-23L604.94-23Q603.47-23 602.01-22.72 600.54-22.44 599.19-21.92 597.83-21.41 596.65-20.68 595.47-19.95 594.59-19.04L594.59-19.04ZM627.96-14.5L627.96-14.5Q627.96-17.43 629.15-20.1 630.35-22.78 632.6-24.83 634.84-26.88 638.1-28.1 641.36-29.32 645.51-29.32L645.51-29.32Q649.64-29.32 652.95-28.09 656.25-26.86 658.56-24.71 660.87-22.56 662.1-19.65 663.33-16.75 663.33-13.43L663.33-13.43Q663.33-13.01 663.32-12.54 663.31-12.06 663.26-11.67L663.26-11.67 636.01-11.67Q636.48-10.38 637.52-9.3 638.55-8.23 640.12-7.45 641.68-6.67 643.73-6.24 645.78-5.81 648.27-5.81L648.27-5.81Q650.76-5.81 653.23-6.34 655.69-6.86 657.94-7.67L657.94-7.67 660.38-2.15Q658.96-1.49 657.51-0.99 656.06-0.49 654.48-0.16 652.91 0.17 651.19 0.34 649.47 0.51 647.56 0.51L647.56 0.51Q642.7 0.51 639.04-0.66 635.38-1.83 632.91-3.86 630.45-5.88 629.2-8.62 627.96-11.35 627.96-14.5ZM636.01-17.31L655.67-17.31Q655.28-18.51 654.46-19.54 653.64-20.58 652.42-21.35 651.2-22.12 649.59-22.56 647.98-23 646.05-23L646.05-23Q644-23 642.31-22.53 640.63-22.07 639.36-21.29 638.09-20.51 637.25-19.48 636.41-18.46 636.01-17.31L636.01-17.31ZM671.1 0L671.1-28.81 678.32-28.81 678.32-24.66Q680.71-26.44 683.38-27.73 686.04-29.03 688.67-29.71L688.67-29.71 690.8-23.1Q686.62-22.68 683.46-21.23 680.3-19.78 678.32-17.14L678.32-17.14 678.32 0 671.1 0Z" opacity="1" transform="matrix(1,0,0,1,0,0)" fill="#c56e33" class="slogan-text-1" data-fill-palette-color="quaternary" id="text-1"></path></svg></g></svg></g></svg></g></svg></g><g transform="matrix(1,0,0,1,52.29795470397734,0)"><svg viewBox="0 0 108.56253181920243 108.56253181920243" height="108.56253181920243" width="108.56253181920243"><g><svg xmlns="http://www.w3.org/2000/svg" xmlns:xlink="http://www.w3.org/1999/xlink" version="1.0" x="0" y="0" viewBox="10 10 80 80" enable-background="new 0 0 100 100" xml:space="preserve" height="108.56253181920243" width="108.56253181920243" class="icon-icon-0" data-fill-palette-color="quaternary" id="icon-0"><path fill="none" stroke="#C56E33" stroke-linecap="round" stroke-linejoin="round" stroke-miterlimit="10" d="M78.33 56.667l1.945 15.555L78.33 56.667z"></path><path fill="none" stroke="#C56E33" stroke-linecap="round" stroke-linejoin="round" stroke-miterlimit="10" d="M75.689 22.862v-3.157C75.021 14.236 70.37 10 64.722 10c-5.647 0-10.298 4.235-10.968 9.704v3.157c-1.433 0.509-2.461 1.859-2.461 3.461 0 3.145 1.596 5.689 3.582 5.778 1.828 5.631 5.549 9.496 9.847 9.496 4.297 0 8.016-3.864 9.846-9.496 1.986-0.089 3.583-2.633 3.583-5.778C78.15 24.721 77.118 23.371 75.689 22.862z"></path><path fill="none" stroke="#C56E33" stroke-linecap="round" stroke-linejoin="round" stroke-miterlimit="10" d="M63.359 24.58h-6.806v1.945c0 1.071 0.877 1.947 1.946 1.947h2.917c1.069 0 1.942-0.876 1.942-1.947V24.58z"></path><path fill="none" stroke="#C56E33" stroke-linecap="round" stroke-linejoin="round" stroke-miterlimit="10" d="M56.554 24.58l-2.8-1.718L56.554 24.58z"></path><path fill="none" stroke="#C56E33" stroke-linecap="round" stroke-linejoin="round" stroke-miterlimit="10" d="M66.081 24.58h6.806v1.945c0 1.071-0.875 1.947-1.944 1.947h-2.916c-1.071 0-1.945-0.876-1.945-1.947V24.58z"></path><path fill="none" stroke="#C56E33" stroke-linecap="round" stroke-linejoin="round" stroke-miterlimit="10" d="M72.889 24.58l2.801-1.718L72.889 24.58z"></path><path fill="none" stroke="#C56E33" stroke-linecap="round" stroke-linejoin="round" stroke-miterlimit="10" d="M63.359 24.58h2.722H63.359z"></path><path fill="none" stroke="#C56E33" stroke-linecap="round" stroke-linejoin="round" stroke-miterlimit="10" d="M62.292 35.745c1.342 1.341 3.519 1.341 4.86 0C65.811 37.086 63.634 37.086 62.292 35.745z"></path><path fill="none" stroke="#C56E33" stroke-linecap="round" stroke-linejoin="round" stroke-miterlimit="10" d="M75.689 22.862c-3.038 0-5.788-1.231-7.78-3.221l0 0c-2.147-2.147-4.961-3.222-7.777-3.222-3.522 0-6.378 2.885-6.378 6.443v-3.157C54.424 14.236 59.074 10 64.722 10c5.648 0 10.299 4.235 10.968 9.704V22.862z"></path><path fill="none" stroke="#C56E33" stroke-linecap="round" stroke-linejoin="round" stroke-miterlimit="10" d="M64.722 48.889c3.219 0 6.066-1.571 7.834-3.981-0.535-0.258-1.031-0.585-1.446-1.002-0.941-0.937-1.52-2.235-1.52-3.668v-0.429c-1.469 1.139-3.119 1.788-4.868 1.788-1.748 0-3.398-0.649-4.866-1.788v0.429c0 1.433-0.583 2.732-1.521 3.668-0.417 0.417-0.911 0.744-1.449 0.999C58.656 47.317 61.503 48.889 64.722 48.889z"></path><path fill="none" stroke="#C56E33" stroke-linecap="round" stroke-linejoin="round" stroke-miterlimit="10" d="M72.792 45.033c-0.084-0.034-0.155-0.089-0.236-0.125-1.768 2.41-4.615 3.981-7.834 3.981s-6.065-1.571-7.836-3.984c-0.078 0.04-0.151 0.092-0.236 0.128l-3.415 1.415c2.415 3.8 6.651 6.33 11.486 6.33 4.837 0 9.072-2.529 11.489-6.33L72.792 45.033z"></path><path fill="none" stroke="#C56E33" stroke-linecap="round" stroke-linejoin="round" stroke-miterlimit="10" d="M58.889 85.556H10v2.224C10 89.002 11.001 90 12.223 90h44.444c1.222 0 2.222-0.998 2.222-2.221V85.556z"></path><path fill="none" stroke="#C56E33" stroke-linecap="round" stroke-linejoin="round" stroke-miterlimit="10" d="M58.889 82.219c0 1.833-1.5 3.333-3.333 3.333H13.335c-1.834 0-3.335-1.5-3.335-3.333V57.774c0-1.833 1.5-3.335 3.335-3.335h42.221c1.833 0 3.333 1.502 3.333 3.335V82.219z"></path><path fill="none" stroke="#C56E33" stroke-linecap="round" stroke-linejoin="round" stroke-miterlimit="10" d="M55.556 54.439c1.833 0 3.333 1.502 3.333 3.335v14.447H90l-0.004-14.826c0-2.469-1-4.704-2.614-6.321L76.21 46.448c-2.417 3.8-6.652 6.33-11.489 6.33-4.835 0-9.071-2.529-11.486-6.33l-11.172 4.626c-0.938 0.938-1.66 2.089-2.107 3.365H55.556z"></path><circle fill="none" stroke="#C56E33" stroke-linecap="round" stroke-linejoin="round" stroke-miterlimit="10" cx="34.444" cy="70" r="3.3"></circle></svg></g></svg></g><g></g></svg></g></svg></g></svg></g></svg></g><defs></defs></svg><rect width="333.90454557049503" height="333.90454557049503" fill="none" stroke="none" visibility="hidden"></rect></g></svg></g></svg>